<?xml version="1.0" standalone="no"?>
<!DOCTYPE svg PUBLIC "-//W3C//DTD SVG 20010904//EN"
 "http://www.w3.org/TR/2001/REC-SVG-20010904/DTD/svg10.dtd">
<svg version="1.0" xmlns="http://www.w3.org/2000/svg"
 width="1344.000000pt" height="1344.000000pt" viewBox="0 0 1344.000000 1344.000000"
 preserveAspectRatio="xMidYMid meet">
<metadata>
Created by potrace 1.14, written by Peter Selinger 2001-2017
</metadata>
<g transform="translate(0.000000,1344.000000) scale(0.100000,-0.100000)"
fill="#000000" stroke="none">
<path d="M5209 10157 c-64 -99 -141 -219 -226 -350 -34 -53 -63 -102 -63 -107
0 -6 -4 -10 -10 -10 -5 0 -10 -7 -10 -15 0 -8 -4 -15 -10 -15 -5 0 -10 -7 -10
-15 0 -8 -5 -15 -12 -15 -6 0 -8 -3 -5 -7 4 -3 0 -15 -10 -25 -9 -10 -21 -27
-27 -38 -6 -11 -40 -65 -76 -120 -36 -56 -70 -109 -75 -118 -16 -27 -103 -163
-135 -212 -19 -28 -93 -146 -268 -420 -96 -151 -189 -297 -207 -325 -18 -27
-52 -81 -77 -120 -25 -38 -70 -109 -101 -157 -32 -48 -57 -92 -57 -98 0 -5 -4
-10 -9 -10 -5 0 -16 -15 -25 -32 -18 -36 -119 -195 -136 -215 -5 -7 -15 -24
-22 -38 -6 -14 -15 -25 -20 -25 -4 0 -8 -6 -8 -14 0 -8 -6 -21 -13 -28 -7 -7
-22 -28 -32 -45 -11 -18 -23 -33 -28 -33 -8 0 -83 38 -554 281 -84 44 -157 79
-162 79 -5 0 -60 -66 -122 -147 -62 -82 -121 -157 -131 -167 -10 -11 -18 -23
-18 -27 0 -4 -6 -14 -13 -21 -14 -14 -197 -252 -334 -433 -46 -60 -92 -119
-101 -130 -10 -11 -29 -36 -42 -55 -13 -19 -27 -37 -30 -40 -3 -3 -35 -43 -70
-90 -35 -47 -66 -87 -69 -90 -3 -3 -49 -61 -101 -130 -52 -69 -99 -130 -105
-137 -19 -22 -30 -37 -105 -138 -41 -55 -79 -105 -85 -111 -5 -6 -19 -23 -30
-38 -11 -16 -25 -33 -30 -40 -6 -6 -33 -40 -60 -76 -84 -112 -239 -314 -267
-350 -36 -45 -146 -187 -178 -230 -14 -18 -58 -76 -98 -129 -40 -53 -81 -106
-91 -118 -11 -12 -41 -52 -67 -88 -26 -36 -51 -65 -56 -65 -4 0 -8 -5 -8 -12
0 -6 -7 -18 -15 -27 -8 -9 -42 -52 -76 -96 -92 -123 -148 -196 -177 -232 -9
-12 -26 -33 -37 -48 -11 -14 -31 -40 -45 -58 -14 -18 -32 -41 -39 -52 -16 -24
132 128 274 279 54 59 123 133 153 164 92 97 417 442 492 522 84 90 286 304
330 351 25 26 95 100 155 164 61 65 128 137 150 160 22 23 96 102 165 175 69
74 139 148 155 165 51 55 279 297 341 363 33 34 90 95 127 134 l68 72 74 -79
c41 -44 100 -107 132 -141 32 -33 110 -116 173 -184 63 -67 135 -143 160 -169
96 -100 111 -122 106 -150 -6 -26 -8 -50 -22 -186 -10 -100 -14 -137 -29 -265
-14 -122 -26 -230 -39 -366 -9 -95 -18 -171 -21 -194 -2 -14 -6 -54 -10 -90
-3 -36 -8 -76 -10 -90 -2 -14 -7 -50 -10 -80 -4 -50 -12 -124 -20 -190 -1 -14
-6 -59 -9 -100 -4 -41 -10 -84 -12 -95 -11 -43 16 10 37 74 12 35 28 75 35 90
8 14 14 32 14 39 0 7 4 21 10 32 6 11 15 29 20 40 5 11 10 25 10 32 0 7 6 24
13 38 7 14 21 48 31 75 10 28 21 59 26 70 11 27 22 58 26 70 1 6 32 87 69 180
37 94 70 181 75 195 9 28 76 204 89 235 20 46 62 161 63 170 0 6 7 19 14 30 8
11 14 26 14 35 0 8 7 28 15 44 8 15 15 33 15 38 0 6 7 24 14 41 17 37 124 319
126 332 1 4 7 19 43 105 6 14 11 28 11 32 1 3 4 10 9 14 4 4 7 14 7 21 0 8 10
35 21 61 12 25 22 51 24 57 1 5 6 19 10 30 4 11 18 47 30 80 13 33 41 108 64
167 23 58 41 109 41 111 0 3 8 22 17 43 9 22 17 41 18 44 2 7 15 41 25 65 4
11 13 36 20 55 7 19 16 44 21 55 5 11 49 128 99 260 50 132 94 249 99 260 22
48 233 611 234 623 0 6 4 12 9 12 4 0 8 8 8 18 1 9 7 28 16 42 l15 25 -5 -30
c-5 -30 -13 -97 -20 -170 -3 -22 -8 -71 -11 -110 -4 -38 -9 -78 -10 -87 -2 -9
-7 -48 -11 -85 -4 -37 -8 -81 -10 -98 -2 -16 -6 -61 -10 -100 -10 -107 -12
-120 -14 -120 -1 0 -3 -20 -5 -44 -1 -23 -6 -66 -10 -95 -4 -28 -9 -76 -10
-106 l-4 -55 18 50 c10 28 32 89 49 138 18 48 45 124 61 170 17 45 62 170 101
277 39 107 73 202 75 210 2 8 15 43 29 78 13 34 25 65 26 67 1 9 9 31 60 175
91 256 130 365 137 380 3 8 7 17 8 20 7 30 40 117 46 126 5 6 6 14 2 17 -3 4
-3 7 0 7 6 0 25 -38 63 -127 8 -18 21 -50 30 -70 9 -21 24 -56 34 -78 10 -22
26 -60 37 -85 12 -25 42 -94 68 -155 26 -60 55 -128 65 -150 10 -22 32 -74 50
-115 18 -41 43 -99 56 -128 13 -29 36 -80 50 -115 28 -67 47 -111 85 -196 13
-30 23 -58 22 -62 -1 -4 4 -13 12 -19 8 -7 15 -17 15 -22 0 -9 45 -117 110
-263 10 -22 32 -74 50 -115 18 -41 41 -95 52 -120 11 -25 26 -58 33 -75 7 -16
23 -52 35 -80 12 -27 28 -63 35 -80 7 -16 36 -84 65 -150 28 -66 63 -147 77
-180 36 -86 73 -161 73 -151 0 4 -21 76 -46 160 -25 83 -47 158 -49 166 -2 8
-4 17 -6 20 -1 3 -3 10 -4 15 -1 6 -5 17 -8 25 -9 25 -39 120 -41 133 -3 17
-54 183 -71 232 -8 22 -16 51 -19 65 -2 14 -12 45 -20 69 -9 24 -18 53 -21 65
-4 21 -26 92 -84 281 -31 100 -37 120 -45 153 -3 9 -14 45 -25 80 -17 53 -39
124 -47 155 -1 4 -3 9 -4 12 -1 3 -3 8 -4 13 -1 4 -5 16 -8 27 -4 11 -19 61
-33 110 -15 50 -43 141 -62 204 -19 62 -36 118 -38 125 -1 6 -4 18 -7 26 -3 8
-16 49 -27 90 -12 41 -26 83 -31 92 -6 10 -10 24 -10 33 0 8 -14 58 -31 110
-33 105 -35 137 -4 78 11 -21 31 -58 46 -83 31 -53 234 -412 275 -485 15 -27
38 -67 51 -87 12 -21 23 -40 23 -42 0 -2 24 -46 54 -98 29 -51 65 -114 80
-141 68 -123 133 -237 146 -257 5 -8 16 -28 25 -45 8 -16 31 -57 50 -90 19
-33 49 -85 65 -115 55 -100 92 -165 108 -190 9 -14 17 -27 17 -30 0 -3 10 -21
22 -40 11 -19 60 -105 108 -190 48 -85 96 -171 107 -190 11 -19 30 -53 43 -75
12 -22 61 -108 109 -192 47 -83 98 -173 112 -200 15 -26 42 -74 60 -106 19
-32 34 -60 34 -62 0 -1 18 -33 40 -69 22 -36 40 -70 40 -76 0 -5 3 -10 8 -10
4 0 15 -17 25 -37 9 -21 25 -51 35 -68 9 -16 41 -73 70 -125 29 -52 57 -102
62 -110 9 -14 122 -213 185 -325 15 -27 57 -102 93 -165 36 -63 76 -135 90
-159 46 -82 82 -146 92 -161 6 -8 14 -24 19 -35 5 -11 37 -67 70 -125 70 -119
72 -113 -44 -124 -39 -3 -81 -8 -95 -11 -14 -2 -63 -9 -110 -15 -123 -16 -233
-33 -370 -55 -14 -2 -43 -6 -65 -10 -23 -3 -52 -7 -65 -10 -13 -3 -42 -7 -65
-10 -22 -3 -47 -8 -55 -10 -8 -3 -37 -7 -64 -10 -28 -4 -52 -8 -56 -10 -3 -2
-24 -6 -46 -9 -22 -4 -51 -8 -64 -11 -45 -9 -134 -25 -174 -31 -21 -3 -48 -8
-60 -10 -50 -11 -126 -26 -196 -39 -41 -8 -87 -16 -102 -19 -55 -11 -83 -17
-103 -21 -11 -2 -33 -6 -50 -10 -75 -15 -173 -35 -204 -40 -19 -3 -37 -8 -40
-10 -4 -2 -26 -6 -51 -10 -25 -4 -47 -8 -50 -10 -3 -2 -21 -6 -40 -9 -19 -3
-64 -12 -100 -20 -36 -8 -76 -17 -90 -20 -14 -2 -36 -7 -50 -10 -14 -3 -36 -8
-50 -10 -14 -2 -110 -23 -215 -45 -104 -23 -202 -44 -217 -46 -15 -3 -37 -9
-50 -13 -13 -5 -30 -8 -38 -7 -8 1 -21 -3 -28 -8 -7 -6 -15 -7 -18 -4 -3 3
-17 1 -31 -4 -14 -5 -40 -11 -57 -14 -17 -2 -42 -7 -56 -10 -14 -3 -41 -8 -60
-11 -19 -3 -38 -8 -42 -11 -9 -5 -36 -11 -88 -19 -19 -3 -51 -9 -70 -14 -19
-5 -46 -11 -60 -14 -24 -4 -96 -18 -112 -22 -5 -1 -9 -3 -10 -4 -2 -1 -14 -3
-28 -5 -14 -2 -36 -6 -50 -10 -14 -3 -47 -10 -75 -16 -27 -5 -63 -12 -80 -15
-16 -4 -39 -8 -50 -9 -11 -2 -20 -4 -20 -5 0 -1 -11 -3 -25 -6 -14 -2 -56 -11
-95 -19 -38 -8 -83 -16 -100 -19 -16 -3 -40 -8 -51 -10 -12 -2 -37 -7 -55 -10
-19 -3 -45 -8 -59 -11 -14 -3 -38 -8 -55 -10 -69 -12 -142 -25 -175 -30 -19
-3 -43 -8 -52 -11 -9 -3 -32 -6 -50 -8 -18 -2 -47 -6 -63 -9 -17 -4 -46 -9
-65 -11 -19 -3 -46 -8 -60 -10 -35 -7 -98 -16 -145 -22 -22 -2 -51 -7 -65 -9
-49 -7 -245 -34 -300 -40 -30 -3 -150 -16 -202 -20 -20 -2 -72 -7 -115 -11
-43 -3 -103 -8 -133 -11 -83 -7 -744 -11 -755 -5 -5 4 -30 7 -55 8 -43 1 -130
10 -195 20 -16 2 -46 6 -65 9 -19 2 -46 7 -60 9 -13 3 -42 8 -65 12 -51 7
-219 47 -308 73 -101 29 -291 102 -299 115 -4 6 -8 8 -8 4 0 -9 -208 98 -233
120 -16 15 -17 14 -11 -1 3 -9 9 -17 13 -17 4 0 16 -8 27 -18 24 -21 37 -31
199 -139 223 -150 620 -334 840 -389 6 -1 57 -16 115 -32 99 -29 252 -64 330
-76 19 -3 46 -8 60 -11 14 -4 40 -8 58 -10 18 -2 45 -6 60 -9 15 -3 45 -8 67
-11 22 -3 56 -7 75 -10 343 -46 940 -60 1375 -30 33 2 105 7 160 10 55 4 118
9 140 11 22 2 72 6 110 9 39 3 86 8 105 10 19 2 64 6 100 10 36 3 76 8 90 10
23 3 43 6 170 20 53 6 125 15 160 21 14 2 50 6 80 9 30 3 66 8 80 11 14 2 43
7 65 10 121 15 148 19 207 29 24 4 54 9 68 10 26 3 66 9 160 25 30 5 71 12 90
15 19 3 49 8 65 11 17 3 46 7 65 9 19 3 46 7 60 10 13 2 40 7 60 10 20 3 47 8
60 10 14 3 41 7 60 10 19 3 46 7 60 10 24 5 171 30 235 41 37 6 73 12 100 18
11 2 40 7 65 11 25 4 54 9 65 12 11 2 45 8 75 13 30 6 66 12 80 15 14 3 41 8
60 11 33 5 55 8 110 19 14 3 39 7 55 10 17 3 53 10 80 15 28 5 64 12 80 14 17
3 48 8 70 12 22 4 46 7 53 7 6 0 12 4 12 8 0 4 8 6 17 5 10 -2 33 1 53 5 19 5
55 11 80 15 25 3 48 8 51 10 3 1 28 6 55 10 27 3 58 8 69 10 11 2 45 8 75 14
30 6 64 12 75 14 25 5 104 18 130 22 11 2 31 5 45 8 14 3 95 17 180 31 157 26
189 32 225 39 11 2 42 7 68 10 27 4 58 9 70 12 12 2 39 6 62 9 22 3 51 8 65
10 57 12 69 14 121 20 65 9 66 9 202 30 60 9 121 18 135 20 15 2 27 4 27 5 0
1 14 3 30 4 17 2 55 7 85 11 30 4 69 9 87 11 35 3 98 12 128 18 11 2 54 7 95
11 41 4 83 9 94 11 10 2 46 6 80 9 33 3 75 7 91 9 58 8 195 21 320 31 33 2 83
7 110 9 28 3 91 7 140 11 50 3 125 8 168 11 402 28 1135 17 1432 -22 22 -3 63
-7 90 -9 28 -3 64 -7 80 -9 17 -2 53 -7 80 -11 28 -4 61 -9 75 -11 14 -2 41
-7 60 -10 39 -6 282 -51 318 -59 12 -3 31 -7 43 -10 11 -2 29 -7 39 -10 10 -3
27 -7 37 -9 10 -2 38 -9 63 -16 25 -7 52 -13 60 -15 103 -21 438 -137 630
-218 14 -5 28 -10 33 -9 4 1 7 -2 7 -8 0 -5 6 -10 13 -10 11 0 297 -139 307
-150 3 -3 21 -13 40 -23 l35 -18 -25 21 c-14 12 -35 30 -48 41 -12 10 -27 19
-32 19 -6 0 -10 5 -10 10 0 6 -6 10 -14 10 -8 0 -16 7 -20 15 -3 8 -11 15 -18
15 -7 0 -25 11 -40 25 -15 14 -29 25 -32 25 -2 0 -41 25 -86 55 -45 30 -85 55
-89 55 -4 0 -16 8 -27 18 -10 9 -30 23 -44 30 -14 7 -38 20 -55 31 -81 49
-285 161 -296 161 -4 0 -22 12 -40 27 -18 16 -30 23 -26 16 4 -7 -18 0 -50 16
-32 16 -79 38 -105 50 -27 11 -67 30 -90 40 -64 29 -287 117 -333 131 -22 7
-44 16 -50 20 -5 5 -14 9 -20 9 -12 1 -101 29 -130 40 -19 8 -128 42 -150 47
-5 1 -37 10 -70 19 -88 25 -205 54 -245 61 -19 3 -42 9 -50 14 -8 4 -37 11
-65 15 -27 5 -54 9 -60 11 -78 19 -374 70 -465 80 -25 3 -56 7 -70 9 -14 3
-52 8 -85 11 -33 3 -73 8 -90 10 -16 2 -64 6 -105 9 -41 3 -94 7 -116 10 -121
13 -318 19 -664 19 -426 1 -624 -7 -985 -39 -33 -3 -85 -7 -115 -10 -30 -2
-82 -7 -115 -11 -33 -3 -73 -7 -90 -9 -16 -1 -34 -4 -40 -5 -28 -7 -44 4 -58
38 -8 20 -35 80 -60 132 -42 88 -97 204 -179 377 -17 37 -32 70 -33 73 0 3
-12 30 -27 60 -49 104 -130 275 -160 340 -17 36 -47 101 -68 145 -45 95 -101
215 -143 305 -16 36 -56 121 -88 189 -33 68 -59 125 -59 127 0 2 -30 65 -66
141 -90 187 -108 227 -106 236 1 4 -2 7 -8 7 -5 0 -10 4 -10 10 0 9 -23 60
-108 240 -20 41 -36 77 -36 80 -1 3 -12 26 -24 51 -25 51 -25 4 -6 739 10 414
12 485 13 494 1 5 14 -9 31 -30 16 -22 33 -43 38 -49 4 -5 18 -26 32 -45 13
-19 27 -37 30 -40 3 -3 107 -140 230 -305 124 -165 229 -304 233 -310 4 -5 40
-53 80 -105 39 -52 75 -96 79 -98 4 -2 8 -8 8 -12 0 -9 108 -155 143 -195 10
-11 28 -36 40 -55 11 -19 24 -37 28 -40 6 -4 40 -49 104 -136 20 -27 68 -90
83 -109 19 -24 78 -105 92 -125 8 -12 20 -28 25 -34 29 -31 205 -268 205 -276
0 -4 4 -10 8 -12 5 -1 28 -30 53 -63 24 -33 46 -62 49 -65 3 -3 93 -122 200
-265 107 -143 198 -261 202 -263 4 -2 8 -10 8 -17 0 -7 3 -15 8 -17 4 -1 27
-30 52 -63 25 -33 49 -64 53 -70 86 -110 187 -248 187 -254 0 -5 4 -11 8 -13
10 -4 232 -296 232 -305 0 -3 8 -13 18 -22 9 -9 30 -35 46 -58 16 -24 30 -43
31 -43 2 0 -10 42 -27 93 -30 91 -39 116 -58 160 -5 12 -13 38 -19 57 -5 19
-30 94 -55 165 -26 72 -60 171 -77 220 -17 50 -33 97 -37 105 -3 8 -6 17 -7
20 -1 3 -4 12 -7 20 -4 8 -25 71 -48 140 -23 69 -45 134 -50 145 -20 48 -20
62 -1 124 97 321 163 539 166 551 2 8 22 78 45 155 22 77 43 148 45 157 2 9 8
26 14 37 6 11 10 24 9 28 -1 4 4 25 11 46 7 21 14 44 15 50 2 7 6 19 9 27 18
47 105 349 106 368 1 6 5 12 9 12 5 0 58 -60 118 -132 59 -73 113 -138 119
-144 5 -6 22 -26 37 -45 14 -19 35 -44 46 -57 19 -21 36 -43 120 -146 18 -23
41 -50 51 -61 10 -11 82 -99 160 -195 79 -96 153 -186 165 -200 12 -14 75 -90
140 -170 66 -80 122 -147 125 -150 3 -3 33 -39 66 -80 70 -87 86 -108 100
-124 6 -6 30 -36 55 -66 25 -30 47 -57 50 -60 3 -3 46 -54 95 -115 49 -60 92
-112 95 -115 3 -3 21 -25 40 -50 19 -25 41 -52 50 -60 9 -8 31 -35 50 -60 19
-25 37 -47 40 -50 3 -3 27 -32 55 -65 27 -33 53 -61 57 -63 5 -2 8 -8 8 -14 0
-5 6 -15 13 -22 22 -24 94 -109 197 -236 114 -139 164 -200 197 -239 13 -14
26 -30 31 -36 4 -5 74 -91 156 -190 81 -99 164 -200 184 -224 21 -25 46 -55
57 -67 11 -12 29 -35 40 -50 11 -15 29 -38 40 -50 43 -47 63 -72 61 -76 -1 -1
18 -23 43 -48 37 -37 41 -33 6 6 -5 6 -17 22 -25 34 -32 48 -84 115 -92 118
-4 2 -8 8 -8 13 0 8 -43 70 -93 134 -4 5 -32 44 -62 85 -30 41 -72 100 -94
130 -94 128 -327 450 -341 470 -8 12 -33 46 -55 75 -22 30 -51 70 -65 90 -14
20 -30 42 -35 48 -6 7 -26 34 -45 62 -19 27 -40 56 -47 63 -7 7 -20 26 -30 42
-9 17 -21 30 -25 30 -4 0 -8 5 -8 12 0 6 -7 18 -15 27 -9 9 -41 52 -72 96 -32
44 -60 82 -63 85 -3 3 -19 25 -35 50 -17 25 -40 56 -52 70 -13 14 -23 28 -23
31 0 5 -25 40 -68 94 -4 6 -18 26 -32 45 -13 19 -27 37 -30 40 -3 3 -21 28
-40 55 -19 28 -38 55 -42 60 -12 14 -113 154 -140 193 -13 18 -28 39 -33 45
-6 7 -26 35 -45 62 -19 28 -38 52 -41 55 -7 6 -151 206 -164 228 -5 9 -13 19
-16 22 -3 3 -34 43 -67 90 -34 47 -69 94 -78 105 -8 11 -23 32 -32 48 -9 15
-20 27 -24 27 -4 0 -8 6 -8 14 0 8 -3 16 -7 18 -12 5 -173 227 -173 238 0 6
-3 10 -7 10 -5 0 -19 17 -33 38 -14 20 -27 39 -30 42 -4 3 -22 28 -41 55 -18
28 -36 52 -40 55 -3 3 -49 66 -102 140 -54 74 -103 142 -110 150 -7 8 -34 47
-62 85 -27 39 -53 72 -57 73 -4 2 -8 8 -8 13 0 5 -17 32 -37 59 -21 27 -49 65
-63 85 -14 19 -34 47 -46 61 l-21 25 -25 -33 c-14 -18 -41 -49 -60 -69 -18
-20 -55 -63 -83 -95 -58 -67 -225 -260 -320 -368 -11 -12 -45 -51 -75 -86 -74
-86 -123 -143 -195 -225 -33 -38 -69 -79 -80 -93 -11 -13 -31 -36 -45 -51 -14
-15 -46 -52 -72 -82 -145 -169 -137 -162 -153 -145 -8 8 -15 19 -15 24 0 6 -3
12 -8 14 -4 2 -32 33 -62 69 -61 73 -74 89 -221 269 -55 69 -111 136 -123 150
-11 14 -68 84 -126 155 -139 173 -134 166 -145 179 -6 6 -58 70 -115 141 -58
72 -107 132 -110 135 -3 3 -25 30 -50 60 -25 30 -47 57 -50 60 -4 3 -13 14
-21 26 -8 12 -33 43 -56 70 -23 27 -58 69 -78 94 -68 85 -215 266 -292 357
-20 24 -42 51 -50 60 -10 13 -16 15 -19 6 -3 -7 -10 -13 -16 -13 -5 0 -26 -16
-46 -35 -20 -19 -42 -35 -49 -35 -7 0 -16 -6 -20 -13 -4 -7 -51 -46 -103 -87
-52 -41 -106 -84 -120 -97 -14 -13 -28 -23 -31 -23 -4 0 -31 27 -60 61 -30 33
-63 71 -74 83 -11 13 -31 36 -45 52 -14 16 -54 63 -90 104 -36 41 -76 88 -90
104 -14 16 -29 34 -35 40 -5 6 -39 45 -75 86 -36 41 -77 88 -91 105 -15 16
-75 86 -135 155 -59 69 -111 127 -114 130 -3 3 -30 34 -60 70 -30 36 -57 67
-60 70 -3 3 -37 42 -77 87 l-72 82 -52 -82z"/>
<path d="M10467 4424 c-1 -1 -112 -5 -247 -9 -135 -3 -270 -8 -300 -9 -88 -6
-242 -17 -280 -21 -19 -2 -73 -6 -118 -10 -46 -4 -92 -8 -101 -10 -10 -2 -51
-6 -92 -10 -41 -4 -87 -9 -104 -11 -16 -2 -52 -7 -80 -9 -73 -8 -106 -12 -140
-18 -16 -3 -52 -8 -80 -12 -27 -3 -66 -8 -85 -11 -19 -3 -51 -7 -70 -10 -19
-2 -60 -9 -90 -14 -30 -5 -77 -12 -105 -16 -27 -3 -59 -8 -70 -10 -11 -2 -40
-7 -65 -10 -25 -3 -54 -8 -65 -10 -11 -2 -36 -7 -55 -10 -19 -4 -44 -8 -55
-10 -11 -2 -47 -9 -80 -14 -57 -10 -79 -13 -135 -25 -14 -3 -45 -8 -70 -11
-25 -3 -47 -8 -50 -9 -3 -2 -26 -6 -50 -10 -46 -7 -71 -12 -80 -15 -3 -1 -9
-3 -15 -4 -22 -4 -101 -19 -120 -23 -11 -2 -29 -6 -40 -7 -20 -4 -58 -11 -105
-21 -14 -3 -36 -7 -50 -10 -14 -3 -36 -7 -50 -10 -14 -4 -34 -8 -45 -9 -44 -8
-91 -17 -105 -21 -8 -2 -28 -7 -45 -10 -16 -2 -41 -7 -55 -10 -86 -19 -129
-27 -155 -31 -16 -2 -38 -7 -47 -10 -10 -3 -28 -7 -40 -10 -13 -2 -32 -6 -43
-8 -81 -18 -165 -36 -185 -39 -14 -3 -36 -8 -50 -11 -14 -3 -36 -8 -50 -10
-14 -2 -68 -14 -120 -25 -52 -11 -106 -23 -120 -25 -14 -3 -90 -19 -170 -36
-80 -17 -158 -33 -175 -35 -39 -7 -70 -13 -70 -15 0 -1 -9 -3 -20 -4 -18 -2
-84 -15 -110 -22 -33 -8 -610 -116 -642 -119 -21 -3 -60 -10 -88 -15 -27 -6
-63 -12 -80 -14 -16 -2 -79 -12 -140 -21 -60 -10 -126 -19 -145 -21 -19 -1
-35 -3 -35 -4 0 -2 -14 -4 -105 -15 -36 -4 -72 -9 -80 -10 -8 -1 -46 -6 -85
-10 -38 -4 -86 -9 -105 -11 -40 -4 -141 -13 -215 -19 -27 -2 -138 -7 -245 -10
-107 -3 -201 -8 -207 -10 -7 -2 -13 -1 -13 3 0 4 -55 7 -123 8 -134 1 -319 12
-341 20 -8 3 -34 7 -58 9 -23 2 -56 6 -73 9 -16 3 -46 9 -65 12 -70 12 -118
22 -141 29 -10 4 -19 4 -19 1 0 -7 108 -57 132 -61 9 -2 25 -8 35 -13 47 -24
343 -114 456 -138 58 -12 124 -26 147 -30 14 -3 50 -9 80 -15 30 -5 72 -12 94
-14 21 -3 59 -7 85 -11 25 -3 60 -7 76 -9 17 -2 50 -6 75 -9 246 -28 901 -29
1225 -1 17 2 66 6 110 9 44 3 96 8 115 10 45 6 131 15 200 21 31 3 69 7 85 9
17 3 53 7 80 11 28 3 65 8 83 11 18 2 54 7 80 10 26 3 59 7 73 9 15 3 44 7 65
10 104 13 187 25 219 31 11 2 40 7 65 10 65 9 79 11 145 24 33 6 78 13 100 15
22 3 51 7 65 10 45 9 144 27 170 31 14 2 36 6 50 8 13 3 40 8 60 11 20 3 45 7
55 9 30 6 187 35 215 40 22 3 224 40 290 53 14 2 59 11 100 19 75 15 104 20
170 29 19 3 78 14 130 25 97 21 139 29 175 35 59 9 130 23 130 25 0 1 11 3 25
5 14 2 75 13 137 24 62 12 129 24 150 26 21 3 56 9 78 14 22 6 56 12 75 16 19
3 46 7 60 10 14 3 39 7 55 9 17 3 71 12 120 21 50 9 102 18 117 20 15 2 35 6
45 9 10 3 38 8 63 11 25 2 55 7 66 9 25 5 90 16 119 20 11 2 54 8 95 15 41 6
91 13 110 16 19 2 67 9 105 15 39 6 86 13 105 15 19 2 46 6 60 9 14 2 50 7 80
11 78 9 108 13 165 21 28 4 61 8 75 9 26 2 130 13 190 20 44 5 138 14 215 20
33 2 92 7 130 10 194 16 498 28 655 26 76 -1 101 -1 135 1 19 1 350 -13 390
-16 148 -13 194 -18 225 -22 19 -2 58 -6 85 -9 28 -2 51 -5 53 -6 4 -3 15 -5
77 -14 70 -10 77 -11 130 -20 68 -11 319 -65 345 -74 14 -5 45 -14 70 -21 25
-7 62 -19 83 -26 20 -8 38 -13 40 -12 6 4 138 -42 179 -63 10 -5 22 -9 28 -9
6 0 32 -9 58 -21 26 -12 58 -26 72 -31 14 -6 33 -14 42 -19 27 -14 35 -11 13
5 -45 31 -463 246 -479 246 -3 0 -29 11 -58 24 -115 52 -470 176 -574 201 -10
3 -77 20 -149 39 -71 19 -143 37 -160 40 -16 2 -41 7 -55 11 -22 5 -44 9 -155
30 -16 3 -43 8 -60 10 -16 3 -41 7 -55 10 -14 3 -45 8 -70 11 -43 4 -72 9
-130 19 -14 2 -56 7 -93 10 -37 4 -77 8 -89 10 -11 3 -61 7 -112 10 -50 3
-107 8 -126 10 -29 3 -157 8 -478 18 -30 1 -54 1 -55 1z"/>
</g>
</svg>
